<svg
   xmlns="http://www.w3.org/2000/svg"
   width="30"
   height="30">
   <path
     fill="#FFF"
     d="M 28.344,0 H 1.656 C 0.741,0 0,0.741 0,1.656 V 28.3455 C 0,29.259 0.741,30 1.656,30 h 14.37 V 18.3825 h -3.912 v -4.527 h 3.909 V 10.515 c 0,-3.8745 2.367,-5.985 5.8245,-5.985 1.656,0 3.078,0.123 3.4935,0.1785 v 4.05 h -2.397 c -1.881,0 -2.244,0.8955 -2.244,2.205 v 2.892 h 4.4835 l -0.585,4.527 h -3.9 V 30 h 7.647 c 0.912,0 1.653,-0.741 1.653,-1.656 V 1.656 C 30,0.741 29.259,0 28.344,0 Z"/>
</svg>
