<svg
   xmlns="http://www.w3.org/2000/svg"
   width="30"
   height="30">
  <path
     fill="#ffffff"
     d="M 15,0 C 6.717,0 0,6.7155 0,15 0,21.3555 3.954,26.7825 9.534,28.968 9.402,27.7815 9.2835,25.9605 9.5865,24.666 c 0.273,-1.17 1.758,-7.455 1.758,-7.455 0,0 -0.4485,-0.9 -0.4485,-2.229 0,-2.085 1.209,-3.642 2.715,-3.642 1.278,0 1.896,0.96 1.896,2.112 0,1.287 -0.8175,3.21 -1.242,4.995 -0.354,1.4925 0.75,2.7105 2.22,2.7105 2.667,0 4.716,-2.811 4.716,-6.87 0,-3.5895 -2.58,-6.102 -6.2655,-6.102 -4.2675,0 -6.7725,3.2025 -6.7725,6.51 0,1.2885 0.4965,2.6715 1.1175,3.4215 A 0.45,0.45 0 0 1 9.384,18.549 L 8.967,20.2485 C 8.901,20.523 8.7495,20.583 8.4645,20.4495 6.591,19.578 5.4195,16.839 5.4195,14.6385 c 0,-4.731 3.438,-9.078 9.912,-9.078 5.2035,0 9.2475,3.7095 9.2475,8.664 0,5.1705 -3.2595,9.33 -7.785,9.33 -1.5195,0 -2.9475,-0.7875 -3.4365,-1.722 l -0.9345,3.567 C 12.084,26.703 11.1705,28.3365 10.557,29.331 11.9625,29.766 13.4535,30 15,30 23.283,30 30,23.2845 30,15 30,6.7155 23.283,0 15,0 Z"/>
</svg>
