<svg
   xmlns="http://www.w3.org/2000/svg"
   width="31"
   height="26.57">
  <path
     fill="#ffffff"
     d="M 30.666,3.7588575 A 12.287386,12.287386 0 0 1 27.130677,4.7278091 6.1646918,6.1646918 0 0 0 29.836541,1.3229793 12.329384,12.329384 0 0 1 25.927737,2.8169046 6.1436928,6.1436928 0 0 0 21.435462,0.87300183 c -3.973302,0 -6.892156,3.70781457 -5.995201,7.55662217 A 17.471126,17.471126 0 0 1 2.7553955,1.9994455 6.1631918,6.1631918 0 0 0 4.6603003,10.216035 6.1286936,6.1286936 0 0 1 1.8719397,9.4480731 C 1.8044431,12.299431 3.8473409,14.967797 6.806693,15.560267 A 6.1691915,6.1691915 0 0 1 4.0273319,15.665262 6.1586921,6.1586921 0 0 0 9.7780444,19.940048 12.374381,12.374381 0 0 1 0.666,22.489921 a 17.423129,17.423129 0 0 0 9.434528,2.764362 c 11.426429,0 17.882106,-9.650518 17.492126,-18.3065849 A 12.530373,12.530373 0 0 0 30.6645,3.7618574 Z"/>
</svg>
