<svg
   xmlns="http://www.w3.org/2000/svg"
   width="31"
   height="30">
  <path
     fill="#ffffff"
     d="m 15.333,0 c -8.283,0 -15,6.717 -15,15 0,8.2845 6.717,15 15,15 8.2845,0 15,-6.7155 15,-15 0,-8.283 -6.7155,-15 -15,-15 z m 5.5515,21.1155 c -2.628,0.18 -8.4795,0.18 -11.103,0 C 6.936,20.9205 6.6045,19.527 6.5835,15 6.6045,10.464 6.939,9.0795 9.7815,8.8845 c 2.6235,-0.18 8.4765,-0.18 11.103,0 2.847,0.195 3.177,1.5885 3.1995,6.1155 -0.0225,4.536 -0.357,5.9205 -3.1995,6.1155 z M 12.834,12.072 18.9795,14.9955 12.834,17.928 Z"/>
</svg>
