<svg
   xmlns="http://www.w3.org/2000/svg"
   width="31"
   height="30">
  <path
     fill="#ffffff"
     d="m 15.3325,2.703 c 4.005,0 4.4805,0.015 6.063,0.0885 4.065,0.1845 5.964,2.1135 6.15,6.1485 0.072,1.581 0.0855,2.055 0.0855,6.06 0,4.008 -0.015,4.482 -0.087,6.063 -0.186,4.0305 -2.079,5.9625 -6.1485,6.1485 -1.5825,0.072 -2.055,0.087 -6.063,0.087 -4.005,0 -4.479,-0.015 -6.06,-0.087 -4.0755,-0.186 -5.964,-2.124 -6.15,-6.15 -0.072,-1.581 -0.087,-2.055 -0.087,-6.0615 0,-4.005 0.015,-4.479 0.087,-6.06 0.186,-4.035 2.0805,-5.9655 6.15,-6.15 1.581,-0.072 2.055,-0.087 6.06,-0.087 z m 0,-2.703 C 11.26,0 10.75,0.018 9.1495,0.09 3.7015,0.3405 0.673,3.363 0.424,8.8155 0.3505,10.416 0.334,10.926 0.334,15 c 0,4.074 0.0165,4.5855 0.09,6.1845 0.249,5.448 3.2715,8.475 8.724,8.7255 1.602,0.072 2.112,0.09 6.1845,0.09 4.074,0 4.5855,-0.018 6.186,-0.09 5.442,-0.2505 8.4765,-3.273 8.724,-8.7255 0.0735,-1.599 0.09,-2.1105 0.09,-6.1845 0,-4.074 -0.0165,-4.584 -0.09,-6.183 C 29.998,3.3735 26.9725,0.342 21.52,0.09 19.918,0.015 19.4065,0 15.3325,0 Z m 0,7.2975 a 7.7025,7.7025 0 1 0 0,15.405 7.7025,7.7025 0 0 0 0,-15.405 z m 0,12.702 a 4.9995,4.9995 0 1 1 0,-9.999 4.9995,4.9995 0 0 1 0,9.999 z M 23.341,5.1945 a 1.8000002,1.8000002 0 1 0 -0.0015,3.6 1.8,1.8 0 0 0 0,-3.6 z"/>
</svg>
